<mxfile host="app.diagrams.net" modified="2022-04-26T13:05:54.505Z" agent="5.0 (Windows NT 10.0; Win64; x64) AppleWebKit/537.36 (KHTML, like Gecko) Chrome/100.0.4896.127 Safari/537.36 Edg/100.0.1185.50" etag="jJr91UfFjXcojnOlxAZP" version="17.4.6" type="github">
  <diagram id="NIKGskOum0N9Btx7dSxn" name="Page-1">
    <mxGraphModel dx="1038" dy="579" grid="1" gridSize="10" guides="1" tooltips="1" connect="1" arrows="1" fold="1" page="1" pageScale="1" pageWidth="850" pageHeight="1100" math="0" shadow="0">
      <root>
        <mxCell id="0" />
        <mxCell id="1" parent="0" />
        <mxCell id="uwLisW2FQvhTDPyvV7zc-3" value="" style="edgeStyle=orthogonalEdgeStyle;rounded=0;orthogonalLoop=1;jettySize=auto;html=1;" edge="1" parent="1" source="uwLisW2FQvhTDPyvV7zc-1" target="uwLisW2FQvhTDPyvV7zc-2">
          <mxGeometry relative="1" as="geometry" />
        </mxCell>
        <mxCell id="uwLisW2FQvhTDPyvV7zc-1" value="start" style="rounded=1;whiteSpace=wrap;html=1;" vertex="1" parent="1">
          <mxGeometry x="350" y="30" width="100" height="30" as="geometry" />
        </mxCell>
        <mxCell id="uwLisW2FQvhTDPyvV7zc-5" value="calllback" style="edgeStyle=orthogonalEdgeStyle;rounded=0;orthogonalLoop=1;jettySize=auto;html=1;" edge="1" parent="1" source="uwLisW2FQvhTDPyvV7zc-2" target="uwLisW2FQvhTDPyvV7zc-4">
          <mxGeometry relative="1" as="geometry" />
        </mxCell>
        <mxCell id="uwLisW2FQvhTDPyvV7zc-2" value="call vehicle property" style="whiteSpace=wrap;html=1;rounded=1;" vertex="1" parent="1">
          <mxGeometry x="340" y="100" width="120" height="60" as="geometry" />
        </mxCell>
        <mxCell id="uwLisW2FQvhTDPyvV7zc-7" value="" style="edgeStyle=orthogonalEdgeStyle;rounded=0;orthogonalLoop=1;jettySize=auto;html=1;" edge="1" parent="1" source="uwLisW2FQvhTDPyvV7zc-4" target="uwLisW2FQvhTDPyvV7zc-6">
          <mxGeometry relative="1" as="geometry" />
        </mxCell>
        <mxCell id="uwLisW2FQvhTDPyvV7zc-4" value="construct the vehicle creation&amp;nbsp;" style="whiteSpace=wrap;html=1;rounded=1;" vertex="1" parent="1">
          <mxGeometry x="340" y="240" width="120" height="60" as="geometry" />
        </mxCell>
        <mxCell id="uwLisW2FQvhTDPyvV7zc-9" value="" style="edgeStyle=orthogonalEdgeStyle;rounded=0;orthogonalLoop=1;jettySize=auto;html=1;" edge="1" parent="1" source="uwLisW2FQvhTDPyvV7zc-6" target="uwLisW2FQvhTDPyvV7zc-8">
          <mxGeometry relative="1" as="geometry" />
        </mxCell>
        <mxCell id="uwLisW2FQvhTDPyvV7zc-6" value="create the vehicle agents" style="whiteSpace=wrap;html=1;rounded=1;" vertex="1" parent="1">
          <mxGeometry x="340" y="340" width="120" height="60" as="geometry" />
        </mxCell>
        <mxCell id="uwLisW2FQvhTDPyvV7zc-8" value="update data in add agent schema&amp;nbsp;" style="whiteSpace=wrap;html=1;rounded=1;" vertex="1" parent="1">
          <mxGeometry x="340" y="440" width="120" height="60" as="geometry" />
        </mxCell>
      </root>
    </mxGraphModel>
  </diagram>
</mxfile>
